<svg xmlns="http://www.w3.org/2000/svg" viewBox="0 0 499.87 137.29" role="img" aria-labelledby="iconTapeLogoTitle"><title id="iconTapeLogoTitle">Milk Bar Tape Logo</title><g id="Layer_2" data-name="Layer 2"><g id="Layer_1-2" data-name="Layer 1"><path d="M9.12,137.29H7.2c-.34-5-.66-10.11-1-15.16q-1.52-21.34-3-42.7Q1.78,59.68.42,39.94C.34,38.68.14,37.43,0,36.18V34.27c.8,0,1.6,0,2.39-.08q9.51-.67,19-1.35L47.34,31l29.29-2,28.69-2,26.18-1.84L157,23.39l25.94-1.82,25.35-1.76L234.42,18l25.47-1.77,25.94-1.82,25.34-1.76,26.18-1.83L362.81,9l25.95-1.82L414.1,5.43q13-.9,26.06-1.83l25.58-1.78L491.44,0c.39,0,.77,0,1.23,0q3.6,51.48,7.2,102.78c-.41.07-.72.16-1,.18l-14.59,1-25.7,1.78-29.41,2.06-25.46,1.77-29.41,2.06-28.81,2q-13,.91-25.94,1.83l-28.93,2q-16.26,1.14-32.51,2.29c-10.84.76-21.68,1.49-32.52,2.25l-32.63,2.3-29.18,2c-12,.84-24,1.71-36,2.54-10.83.76-21.68,1.48-32.51,2.24-13.07.92-26.14,1.87-39.21,2.78l-43,3C11.71,137,10.41,137.14,9.12,137.29ZM43.4,80.92l.21-.07c.12.33.24.66.35,1q5.25,14.72,10.49,29.41c.24.68.41,1.16,1.37,1.08,4.58-.38,9.16-.68,13.74-1a1.05,1.05,0,0,0,1.17-1q1.67-9,3.39-18l2.7-14.18H77c.76,10.8,1.52,21.59,2.29,32.48l18.39-1.29c-1.45-20.61-2.88-41-4.31-61.51-.35,0-.54,0-.74,0-7.09.5-14.18,1-21.27,1.48A1.18,1.18,0,0,0,70,50.44Q66.38,66,62.66,81.53c-.36,1.51-.72,3-1.17,4.87-.28-.7-.44-1.06-.57-1.42q-6.2-16.4-12.35-32.81A1.47,1.47,0,0,0,46.78,51c-7.45.57-14.9,1.06-22.35,1.58-.39,0-.77.1-1.24.17,1.43,20.53,2.87,41,4.3,61.49L45.64,113C44.89,102.23,44.15,91.57,43.4,80.92Zm282-19.8c1.82-1,3.65-1.79,5.29-2.88,4.88-3.25,6.74-7.92,6-13.65s-4-9.05-9.27-10.77a36.55,36.55,0,0,0-13.75-1.38c-8.29.49-16.58,1.11-24.87,1.68-2.42.17-4.83.36-7.38.55,1.44,20.57,2.87,41,4.31,61.55C289,96,292,95.8,295,95.57c8.6-.63,17.21-1.16,25.8-1.95a28.73,28.73,0,0,0,13.92-4.74,15.38,15.38,0,0,0,4.64-20.29c-2.34-3.89-6.1-5.71-10.34-6.74C327.87,61.56,326.66,61.36,325.44,61.12Zm114.87,4.67c1.74-.1,3.37-.26,5-.29,2.75,0,3.83.75,4.54,3.44.62,2.31,1.11,4.65,1.67,7,.62,2.56,1.24,5.11,1.88,7.66.16.66.52.93,1.29.87,5.46-.42,10.92-.77,16.38-1.15,1.58-.11,3.16-.24,4.9-.38-.56-1.36-1.06-2.56-1.54-3.77-1.85-4.72-3.67-9.44-5.55-14.14a11.12,11.12,0,0,0-9.73-7.26,5.94,5.94,0,0,1-.74-.22,56.65,56.65,0,0,0,6-2.53c6.32-3.53,9.65-8.8,8.91-16.23-.71-7.2-4.58-11.89-11.43-14.16a38,38,0,0,0-14.34-1.52c-8.33.49-16.66,1.12-25,1.7-2.23.15-4.45.33-6.77.5,1.44,20.54,2.87,41,4.31,61.55l21.57-1.5C441.21,78.8,440.76,72.37,440.31,65.79ZM201.49,102.11l21.53-1.5c0-.37,0-.6,0-.83q-.65-9.07-1.28-18.14c0-.36-.14-.8,0-1,1-1.63,2.15-3.22,3.31-4.93l.71,1.37c3.61,7.2,7.24,14.4,10.83,21.62a1.41,1.41,0,0,0,1.64.92c5.34-.41,10.68-.76,16-1.13l5.92-.45c-.32-.61-.53-1-.75-1.45q-9.16-16.89-18.33-33.76a1.76,1.76,0,0,1,0-2q7-11.6,13.84-23.24c.18-.29.33-.6.52-1-.23,0-.34,0-.45,0-7.17.5-14.34,1-21.52,1.49-.85.05-1.15.52-1.49,1.12q-5.51,9.67-11,19.33c-.2.35-.41.69-.62,1l-.22-.1c-.48-6.74-1-13.49-1.44-20.33l-21.56,1.52C198.61,61.1,200,81.5,201.49,102.11ZM411.8,87.42c-.17-.48-.27-.85-.42-1.21q-11.65-29-23.29-58a1.24,1.24,0,0,0-1.47-.95q-11.36.84-22.72,1.57c-.94.06-1.25.42-1.46,1.29q-7.1,29.37-14.25,58.73c-.23,1-.43,1.92-.65,2.89a1.92,1.92,0,0,0,.47.11c6.73-.47,13.46-1,20.2-1.39.77,0,1-.39,1.11-1.07.4-2.48.85-5,1.3-7.5l16.29-1.14L389.63,89ZM192.05,102.77c-.44-6.12-.86-12.09-1.28-18.13l-27.11,1.89c-1-14.53-2-28.94-3-43.44L139,44.61c1.45,20.62,2.88,41,4.32,61.56ZM131.29,107c-1.44-20.55-2.87-41-4.31-61.57L105.41,47c1.44,20.63,2.87,41,4.31,61.57ZM482.11,24.72l.29-.08c.62,1.36,1.2,2.74,1.86,4.08a5.19,5.19,0,0,0,.94,1.06,7.29,7.29,0,0,0,.73-1.22c.28-.79.44-1.61.68-2.41s.41-1.34.62-2c.26,1,.26,2,.42,2.91s-.23,1.82.42,2.53l.41-.06c-.15-2.35-.31-4.7-.46-7l-.39-.23c-.3.33-.75.61-.87,1-.57,1.76-1,3.55-1.65,5.69-.92-2.05-1.67-3.79-2.5-5.49-.15-.29-.64-.41-1-.61a2.43,2.43,0,0,0-.31.89c.1,1.91.25,3.81.41,5.72a1.87,1.87,0,0,0,.31.59l.37-.08Zm-4.52,5.51.53.06c.33-2.16-.34-4.35-.19-6.46l2.4-.42-.1-.42a56.23,56.23,0,0,0-5.66.39l0,.46h2.51C477.28,26.05,477.43,28.14,477.59,30.23Z"></path><path d="M306.28,79.25c-.22-3-.42-5.84-.65-9,3.37,0,6.71-.24,10,0,2.16.13,3.14,1.49,3.32,3.59A3.89,3.89,0,0,1,316.32,78a6.5,6.5,0,0,1-1.72.49C311.91,78.77,309.21,79,306.28,79.25Z"></path><path d="M304.11,48.37c2.74,0,5.26-.11,7.75,0,2.78.16,4.19,2.07,3.82,4.83a3.66,3.66,0,0,1-3.19,3.27c-2.5.45-5,.65-7.73,1C304.54,54.43,304.34,51.6,304.11,48.37Z"></path><path d="M438.49,40.07c3.06,0,6-.28,8.85-.08s4,1.68,4.32,4.67c.3,2.67-.79,4.89-3.19,5.64a34.21,34.21,0,0,1-5.74,1c-1.1.15-2.22.14-3.43.2C439,47.76,438.78,44.09,438.49,40.07Z"></path><path d="M372.94,67.91c1.1-6.39,2.16-12.58,3.22-18.77l.21,0c2,6,4,12.07,6.05,18.18Z"></path></g></g></svg>