<svg width="251" height="8" viewBox="0 0 251 8" fill="none" xmlns="http://www.w3.org/2000/svg">
<path d="M1.16748 1C13.5718 1 13.5718 7 25.9762 7C38.3806 7 38.3806 1 50.7849 1C63.1893 1 63.1893 7 75.5646 7C87.9693 7 87.9693 1 100.344 1C112.749 1 112.749 7 125.124 7C137.528 7 137.528 1 149.932 1C162.337 1 162.337 7 174.741 7C187.145 7 187.145 1 199.55 1C211.954 1 211.954 7 224.359 7C236.763 7 236.763 1 249.167 1" stroke="#200039" stroke-width="2" stroke-miterlimit="10" stroke-linecap="round"/>
</svg>
